<?xml version="1.0" encoding="UTF-8" standalone="no"?>
<!-- Created with Inkscape (http://www.inkscape.org/) -->

<svg
   xmlns:dc="http://purl.org/dc/elements/1.1/"
   xmlns:cc="http://creativecommons.org/ns#"
   xmlns:rdf="http://www.w3.org/1999/02/22-rdf-syntax-ns#"
   xmlns:svg="http://www.w3.org/2000/svg"
   xmlns="http://www.w3.org/2000/svg"
   xmlns:sodipodi="http://sodipodi.sourceforge.net/DTD/sodipodi-0.dtd"
   xmlns:inkscape="http://www.inkscape.org/namespaces/inkscape"
   id="svg2"
   version="1.1"
   inkscape:version="0.91 r13725"
   xml:space="preserve"
   width="512"
   height="512"
   viewBox="0 0 512 512.00002"
   sodipodi:docname="olimpycs_29.svg"><metadata
     id="metadata8"><rdf:RDF><cc:Work
         rdf:about=""><dc:format>image/svg+xml</dc:format><dc:type
           rdf:resource="http://purl.org/dc/dcmitype/StillImage" /><dc:title></dc:title></cc:Work></rdf:RDF></metadata><defs
     id="defs6"><clipPath
       clipPathUnits="userSpaceOnUse"
       id="clipPath16"><path
         d="m 0,0 621.98,0 0,829.772 L 0,829.772 0,0 Z"
         id="path18"
         inkscape:connector-curvature="0" /></clipPath><radialGradient
       fx="0"
       fy="0"
       cx="0"
       cy="0"
       r="1"
       gradientUnits="userSpaceOnUse"
       gradientTransform="matrix(479.01392,0,0,-479.01392,320.69434,431.88232)"
       spreadMethod="pad"
       id="radialGradient24"><stop
         style="stop-opacity:1;stop-color:#ffffff"
         offset="0"
         id="stop26" /><stop
         style="stop-opacity:1;stop-color:#ffffff"
         offset="0.5188977"
         id="stop28" /><stop
         style="stop-opacity:1;stop-color:#d0d2d6"
         offset="1"
         id="stop30" /></radialGradient><clipPath
       clipPathUnits="userSpaceOnUse"
       id="clipPath38"><path
         d="m 0,829.772 621.98,0 L 621.98,0 0,0 0,829.772 Z"
         id="path40"
         inkscape:connector-curvature="0" /></clipPath><clipPath
       clipPathUnits="userSpaceOnUse"
       id="clipPath62"><path
         d="m 262.146,150.421 -5.469,-6.075 c 0,0 1.824,-4.253 5.367,0.506 l 0,0 c 3.544,4.76 11.038,10.026 16.609,9.722 l 0,0 c 5.57,-0.303 8.304,-7.494 6.683,-25.317 l 0,0 C 283.716,111.434 274.196,99.08 272.07,95.232 l 0,0 C 269.943,91.384 260.121,76.294 252.222,74.675 l 0,0 c -7.899,-1.621 -8.608,6.886 -8.608,6.886 l 0,0 -2.329,-6.075 c 0,0 5.265,-7.394 10.025,-6.584 l 0,0 c 4.761,0.811 10.127,1.924 20.658,12.557 l 0,0 c 17.925,16.507 27.445,8.911 36.052,2.735 l 0,0 c 8.607,-6.178 15.696,-17.419 15.696,-17.419 l 0,0 2.634,-0.305 16.707,16.711 c 0,0 -5.265,-2.025 -19.037,1.822 l 0,0 c -15.899,4.355 -25.215,14.584 -25.013,23.596 l 0,0 c 0.203,9.013 17.822,12.659 32.505,7.29 l 0,0 c 14.685,-5.366 15.8,-17.215 15.8,-17.215 l 0,0 2.025,2.937 c 0,0 1.216,-1.519 -1.519,7.19 l 0,0 c -9.013,17.723 -42.027,17.317 -43.748,17.115 l 0,0 c -1.722,-0.203 -1.316,1.216 -0.81,2.734 l 0,0 c 0.81,4.354 -1.923,5.67 -1.923,5.67 l 0,0 c -4.053,2.026 -6.482,-2.634 -7.697,-4.355 l 0,0 c -1.215,-1.721 -1.113,0.204 -1.113,2.937 l 0,0 c 0.303,24.711 -10.229,25.217 -10.229,25.217 l 0,0 c -0.54,0.102 -1.107,0.15 -1.695,0.15 l 0,0 c -7.559,-0.001 -18.457,-7.848 -18.457,-7.848"
         id="path64"
         inkscape:connector-curvature="0" /></clipPath><radialGradient
       fx="0"
       fy="0"
       cx="0"
       cy="0"
       r="1"
       gradientUnits="userSpaceOnUse"
       gradientTransform="matrix(50.199547,0,0,-50.199547,295.44629,112.36914)"
       spreadMethod="pad"
       id="radialGradient70"><stop
         style="stop-opacity:1;stop-color:#f9c00d"
         offset="0"
         id="stop72" /><stop
         style="stop-opacity:1;stop-color:#f9c00d"
         offset="0.29309138"
         id="stop74" /><stop
         style="stop-opacity:1;stop-color:#e96b35"
         offset="1"
         id="stop76" /></radialGradient><clipPath
       clipPathUnits="userSpaceOnUse"
       id="clipPath84"><path
         d="m 263.505,153.387 c -10.304,-6.269 -37.02,-32.493 -32.894,-66.139 l 0,0 c 3.864,-20.439 16.738,-21.726 30.096,-15.128 l 0,0 c -4.185,-1.448 -16.738,-1.932 -17.38,13.358 l 0,0 c -0.645,15.289 13.517,19.472 21.724,11.908 l 0,0 c 8.209,-7.562 21.244,-21.083 36.211,-25.588 l 0,0 c -4.507,2.092 -11.587,7.401 -19.635,20.922 l 0,0 c -8.046,13.516 -14.161,22.852 -22.206,26.07 l 0,0 c 1.768,3.542 4.022,8.69 0.321,10.784 l 0,0 c -3.703,2.092 -6.921,-3.058 -6.921,-3.058 l 0,0 c 0,0 -1.287,0 0,2.735 l 0,0 c 1.287,2.737 7.886,16.897 16.737,22.853 l 0,0 c 0,0 2.599,2.181 5.171,3.487 l 0,0 c 6.49,3.47 10.164,1.224 11.266,0.653 l 0,0 c -2.204,1.756 -4.571,2.041 -4.571,2.041 l 0,0 c -0.876,0.105 -1.738,0.153 -2.581,0.153 l 0,0 c -8.66,-10e-4 -15.338,-5.051 -15.338,-5.051"
         id="path86"
         inkscape:connector-curvature="0" /></clipPath><linearGradient
       x1="0"
       y1="0"
       x2="1"
       y2="0"
       gradientUnits="userSpaceOnUse"
       gradientTransform="matrix(30.374569,91.371063,91.371063,-30.374569,258.43896,65.954102)"
       spreadMethod="pad"
       id="linearGradient92"><stop
         style="stop-opacity:1;stop-color:#00642f"
         offset="0"
         id="stop94" /><stop
         style="stop-opacity:1;stop-color:#42a83c"
         offset="0.24372249"
         id="stop96" /><stop
         style="stop-opacity:1;stop-color:#42a83c"
         offset="0.512195"
         id="stop98" /><stop
         style="stop-opacity:1;stop-color:#42a83c"
         offset="0.74898886"
         id="stop100" /><stop
         style="stop-opacity:1;stop-color:#00642f"
         offset="1"
         id="stop102" /></linearGradient><linearGradient
       x1="0"
       y1="0"
       x2="1"
       y2="0"
       gradientUnits="userSpaceOnUse"
       gradientTransform="matrix(35.375874,58.59977,58.59977,-35.375874,304.86719,66.061523)"
       spreadMethod="pad"
       id="linearGradient118"><stop
         style="stop-opacity:1;stop-color:#00579c"
         offset="0"
         id="stop120" /><stop
         style="stop-opacity:1;stop-color:#0096c7"
         offset="0.53124072"
         id="stop122" /><stop
         style="stop-opacity:1;stop-color:#0096c7"
         offset="0.536585"
         id="stop124" /><stop
         style="stop-opacity:1;stop-color:#0096c7"
         offset="0.67240794"
         id="stop126" /><stop
         style="stop-opacity:1;stop-color:#00579c"
         offset="1"
         id="stop128" /></linearGradient><clipPath
       clipPathUnits="userSpaceOnUse"
       id="clipPath136"><path
         d="m 0,829.772 621.98,0 L 621.98,0 0,0 0,829.772 Z"
         id="path138"
         inkscape:connector-curvature="0" /></clipPath></defs><sodipodi:namedview
     pagecolor="#ffffff"
     bordercolor="#666666"
     borderopacity="1"
     objecttolerance="10"
     gridtolerance="10"
     guidetolerance="10"
     inkscape:pageopacity="0"
     inkscape:pageshadow="2"
     inkscape:window-width="1855"
     inkscape:window-height="1056"
     id="namedview4"
     showgrid="false"
     inkscape:zoom="0.52679455"
     inkscape:cx="1001.034"
     inkscape:cy="535.07218"
     inkscape:window-x="65"
     inkscape:window-y="24"
     inkscape:window-maximized="1"
     inkscape:current-layer="g10" /><g
     id="g10"
     inkscape:groupmode="layer"
     inkscape:label="Rio2016Vector_019"
     transform="matrix(1.25,0,0,-1.25,0,512.00003)"><g
       id="g34"
       transform="translate(649.96876,150.34324)"><g
         id="g36"
         clip-path="url(#clipPath38)"><g
           id="g42"
           transform="translate(274.271,23.8545)"><path
             d="m 0,0 c -2.561,0.954 -4.169,4.646 -4.824,7.446 0,0 -1.31,5.599 4.11,4.527 C 3.336,11.078 5.052,6.065 5.301,3.694 5.539,1.43 4.526,-1.965 0,0 M 5.539,15.189 C 0.715,19.299 -6.016,15.545 -7.624,12.508 -9.232,9.469 -12.567,4.646 -13.64,2.383 c -1.072,-2.265 -2.204,-3.813 -3.574,-3.693 -1.369,0.119 -1.072,2.025 -1.072,2.025 0,0 0.001,4.705 0.12,8.339 0.119,3.632 -3.395,1.607 -4.348,0.535 -0.953,-1.072 -6.551,-9.947 -10.483,-10.423 -3.931,-0.478 -4.765,3.395 -6.85,7.743 15.785,4.168 15.546,16.32 9.351,19.953 -6.193,3.632 -15.783,0.656 -20.846,-7.684 -5.062,-8.339 -1.667,-22.396 -1.667,-22.396 0.416,-1.845 1.548,-3.512 3.752,-1.309 2.204,2.204 2.025,3.096 1.369,4.883 -0.654,1.788 -2.323,7.148 -1.191,13.759 1.132,6.612 7.981,9.947 12.865,9.114 4.885,-0.835 5.838,-5.54 3.932,-8.161 -1.906,-2.62 -5.063,-3.455 -8.994,-4.049 -3.932,-0.596 -4.408,-3.336 -3.871,-5.302 0.536,-1.966 1.489,-5.002 5.181,-9.171 3.693,-4.171 8.398,-1.728 9.827,-0.417 1.43,1.309 4.169,4.407 5.302,6.193 1.132,1.787 1.369,0.537 1.369,0.537 0,0 -0.059,-2.798 0.298,-5.063 0.536,-3.634 5.421,-4.287 7.267,-2.858 1.846,1.428 4.884,5.48 5.421,7.087 0.536,1.609 1.131,1.132 1.131,1.132 0,0 0.417,-2.442 1.608,-4.171 2.323,-4.107 9.232,-7.324 14.177,-2.262 4.943,5.063 3.929,14.354 -0.895,18.465"
             style="fill:#004689;fill-opacity:1;fill-rule:nonzero;stroke:none"
             id="path44"
             inkscape:connector-curvature="0" /></g><g
           id="g46"
           transform="translate(255.48,38.209)"><path
             d="M 0,0 C 1.694,0 3.067,1.373 3.067,3.065 3.067,4.76 1.694,6.135 0,6.135 -1.694,6.135 -3.067,4.76 -3.067,3.065 -3.067,1.373 -1.694,0 0,0"
             style="fill:#004689;fill-opacity:1;fill-rule:nonzero;stroke:none"
             id="path48"
             inkscape:connector-curvature="0" /></g><g
           id="g50"
           transform="translate(322.4355,26.8242)"><path
             d="m 0,0 c -0.631,-2.019 -2.179,-5.104 -7.622,-2.858 -4.152,1.77 -4.084,6.397 -4.084,6.397 0,0 -0.648,6.86 6.125,5.58 C 0.545,7.964 0.34,1.089 0,0 m -5.784,14.02 c -8.78,-0.612 -10.414,-9.188 -10.549,-10.209 -0.136,-1.022 -0.205,-3.471 -3.812,-5.99 -3.606,-2.516 -7.895,-2.516 -9.188,-0.816 -1.292,1.702 0.409,3.062 2.928,5.649 2.517,2.586 11.296,9.869 10.276,15.857 -1.021,5.99 -9.664,8.849 -15.45,4.425 0,0 -4.218,-3.063 -2.654,-5.378 0,0 0.612,-1.36 3.267,0.682 0,0 4.22,3.538 7.419,1.156 3.198,-2.38 3.81,-6.601 -2.382,-11.91 -6.194,-5.308 -6.806,-5.987 -7.895,-7.554 -1.09,-1.565 -1.973,-4.016 0.203,-6.806 2.179,-2.79 7.216,-2.314 10.958,-0.681 3.744,1.634 7.01,5.309 7.01,5.309 0,0 1.566,-6.058 7.418,-6.534 5.853,-0.476 11.774,3.471 12.659,9.256 0.885,5.786 -1.43,14.157 -10.208,13.544"
             style="fill:#004689;fill-opacity:1;fill-rule:nonzero;stroke:none"
             id="path52"
             inkscape:connector-curvature="0" /></g><g
           id="g54"
           transform="translate(352.3125,23.0801)"><path
             d="m 0,0 c -4.423,1.565 -4.968,7.691 -4.968,7.691 0,0 6.601,3.402 10.549,-0.748 C 9.528,2.792 4.424,-1.564 0,0 m 10.004,10.958 c -4.628,5.854 -12.318,2.791 -15.177,0.681 1.225,5.241 4.424,7.691 8.167,10.617 3.743,2.927 4.288,3.675 4.152,4.424 C 7.01,27.428 6.67,28.653 3.674,27.156 -5.717,22.187 -9.46,13.341 -10.004,8.576 c -1.905,-1.497 -5.378,-6.057 -5.378,-6.057 0,0 0.069,10.958 -0.067,14.293 -0.136,3.334 -2.382,1.565 -2.382,1.565 l -4.695,-2.723 c 0,0 -1.838,-1.429 -0.613,-2.721 1.225,-1.294 3.13,0.067 3.13,0.067 0,0 0,-12.318 -0.136,-15.108 -0.135,-2.79 2.11,-2.928 2.586,-1.976 0.477,0.954 5.65,5.649 7.827,8.304 1.701,-7.689 8.03,-10.345 12.93,-8.983 4.901,1.361 11.435,9.868 6.806,15.721"
             style="fill:#004689;fill-opacity:1;fill-rule:nonzero;stroke:none"
             id="path56"
             inkscape:connector-curvature="0" /></g></g></g><g
       id="g58"
       transform="translate(649.96876,150.34324)"><g
         id="g60"
         clip-path="url(#clipPath62)"><g
           id="g66"><g
             id="g68"><path
               d="m 262.146,150.421 -5.469,-6.075 c 0,0 1.824,-4.253 5.367,0.506 l 0,0 c 3.544,4.76 11.038,10.026 16.609,9.722 l 0,0 c 5.57,-0.303 8.304,-7.494 6.683,-25.317 l 0,0 C 283.716,111.434 274.196,99.08 272.07,95.232 l 0,0 C 269.943,91.384 260.121,76.294 252.222,74.675 l 0,0 c -7.899,-1.621 -8.608,6.886 -8.608,6.886 l 0,0 -2.329,-6.075 c 0,0 5.265,-7.394 10.025,-6.584 l 0,0 c 4.761,0.811 10.127,1.924 20.658,12.557 l 0,0 c 17.925,16.507 27.445,8.911 36.052,2.735 l 0,0 c 8.607,-6.178 15.696,-17.419 15.696,-17.419 l 0,0 2.634,-0.305 16.707,16.711 c 0,0 -5.265,-2.025 -19.037,1.822 l 0,0 c -15.899,4.355 -25.215,14.584 -25.013,23.596 l 0,0 c 0.203,9.013 17.822,12.659 32.505,7.29 l 0,0 c 14.685,-5.366 15.8,-17.215 15.8,-17.215 l 0,0 2.025,2.937 c 0,0 1.216,-1.519 -1.519,7.19 l 0,0 c -9.013,17.723 -42.027,17.317 -43.748,17.115 l 0,0 c -1.722,-0.203 -1.316,1.216 -0.81,2.734 l 0,0 c 0.81,4.354 -1.923,5.67 -1.923,5.67 l 0,0 c -4.053,2.026 -6.482,-2.634 -7.697,-4.355 l 0,0 c -1.215,-1.721 -1.113,0.204 -1.113,2.937 l 0,0 c 0.303,24.711 -10.229,25.217 -10.229,25.217 l 0,0 c -0.54,0.102 -1.107,0.15 -1.695,0.15 l 0,0 c -7.559,-0.001 -18.457,-7.848 -18.457,-7.848"
               style="fill:url(#radialGradient70);stroke:none"
               id="path78"
               inkscape:connector-curvature="0" /></g></g></g></g><g
       id="g80"
       transform="translate(649.96876,150.34324)"><g
         id="g82"
         clip-path="url(#clipPath84)"><g
           id="g88"><g
             id="g90"><path
               d="m 263.505,153.387 c -10.304,-6.269 -37.02,-32.493 -32.894,-66.139 l 0,0 c 3.864,-20.439 16.738,-21.726 30.096,-15.128 l 0,0 c -4.185,-1.448 -16.738,-1.932 -17.38,13.358 l 0,0 c -0.645,15.289 13.517,19.472 21.724,11.908 l 0,0 c 8.209,-7.562 21.244,-21.083 36.211,-25.588 l 0,0 c -4.507,2.092 -11.587,7.401 -19.635,20.922 l 0,0 c -8.046,13.516 -14.161,22.852 -22.206,26.07 l 0,0 c 1.768,3.542 4.022,8.69 0.321,10.784 l 0,0 c -3.703,2.092 -6.921,-3.058 -6.921,-3.058 l 0,0 c 0,0 -1.287,0 0,2.735 l 0,0 c 1.287,2.737 7.886,16.897 16.737,22.853 l 0,0 c 0,0 2.599,2.181 5.171,3.487 l 0,0 c 6.49,3.47 10.164,1.224 11.266,0.653 l 0,0 c -2.204,1.756 -4.571,2.041 -4.571,2.041 l 0,0 c -0.876,0.105 -1.738,0.153 -2.581,0.153 l 0,0 c -8.66,-10e-4 -15.338,-5.051 -15.338,-5.051"
               style="fill:url(#linearGradient92);stroke:none"
               id="path104"
               inkscape:connector-curvature="0" /></g></g></g></g><g
       id="g106"
       transform="translate(649.96876,150.34324)"><g
         id="g108"><g
           id="g114"><g
             id="g116"><path
               d="m 346.805,96.751 c 0,-1.621 -1.115,-1.114 -2.329,-0.102 l 0,0 c -1.215,1.013 -3.95,1.52 -5.772,-0.405 l 0,0 c -1.823,-1.923 -2.027,-4.658 -1.621,-7.798 l 0,0 c 0.405,-3.139 1.418,-9.924 -6.279,-14.987 l 0,0 c -7.696,-5.063 -22.295,-8.548 -42.485,5.529 l 0,0 c 0,0 -9.982,6.28 -14.748,10.542 l 0,0 c 7.899,-7.797 11.765,-12.224 17.031,-17.489 l 0,0 c 0,0 19.544,-19.14 45.265,-12.558 l 0,0 c 25.419,6.38 23.192,30.887 19.748,39.091 l 0,0 c -3.443,8.202 -10.837,17.721 -23.595,22.886 l 0,0 c 0,0 17.52,-9.013 14.785,-24.709"
               style="fill:url(#linearGradient118);stroke:none"
               id="path130"
               inkscape:connector-curvature="0" /></g></g></g></g><g
       id="g152"
       transform="translate(1197.4952,431.00344)"><path
         d="m 0,0 c -0.531,2.633 -3.982,15.538 -4.715,31.594 -0.261,5.654 0.087,9.843 0.212,12.507 5.793,0.14 12.017,0.577 18.05,1.188 C 12.896,41.18 10.999,33.957 7.121,29.274 6.878,28.974 6.845,28.781 7.008,28.712 c 0.228,-0.104 0.746,-0.026 1.107,0.347 3.836,3.925 6.555,10.902 7.387,16.45 1.539,0.23 2.236,0.662 2.766,1.099 0.523,0.435 1.105,1.289 0.899,2.198 -0.244,1.125 -1.674,1.468 -3.182,1.33 0.019,0.394 0.033,0.78 0.036,1.172 6.167,0.127 8,0.384 8,0.384 0,0 1.995,0.116 2.433,0.626 0.756,0.866 -1.059,0.581 -1.059,0.581 -0.673,-0.075 -3.251,-0.525 -9.367,-0.753 -0.043,4.999 -0.867,9.006 -1.897,12.075 C 21.522,61.809 27.28,57.438 28.899,50.87 32.074,38.011 17.204,11.247 0,0 m -4.853,-2.709 c -3.615,-1.677 -7.274,-2.575 -10.827,-2.437 -18.587,0.742 -27.277,43.171 -14.916,60.886 6.715,9.618 27.662,13.207 42.906,9.031 1.326,-4.338 1.799,-8.475 1.782,-12.691 -4.038,-0.103 -9.374,-0.118 -16.343,0.093 -0.837,0.009 -1.101,-0.132 -1.152,-0.381 -0.05,-0.173 0.152,-0.435 0.575,-0.442 7.427,-0.127 12.908,-0.127 16.913,-0.079 -0.015,-0.479 -0.028,-0.958 -0.057,-1.451 -8.174,-1.346 -25.47,-3.103 -36.277,-1.385 -2.098,0.336 -3.277,1.747 -2.855,3.095 0.48,1.543 2.116,2.616 5.573,0.728 1.246,-0.685 2.444,0.258 2.848,0.942 0.594,1.004 0.632,2.041 -0.45,2.78 -1.351,0.795 -3.111,1.019 -3.898,1.08 -0.986,0.085 -6.677,0.254 -7.825,-4.103 -1.269,-4.775 1.91,-6.84 5.112,-7.591 2.371,-0.556 5.299,-0.919 8.602,-1.122 0.259,-2.638 0.252,-7.171 0.183,-9.54 -0.542,-19.151 -4.178,-32.99 -4.38,-34.052 -0.401,-2.046 0.237,-3.482 2.209,-3.722 2.026,-0.253 3.164,0.761 3.597,3.546 0.143,0.919 1.72,16.973 2.766,23.035 0.242,1.398 0.238,2.245 0.872,2.237 0.485,-0.005 0.522,-0.4 0.685,-1.343 0.296,-1.714 0.763,-4.276 1.054,-6.373 1.822,-13.357 2.296,-18.475 2.847,-20.013 0.104,-0.289 0.263,-0.531 0.456,-0.728 m -5.457,51.82 c 0.746,0.035 2.652,0.55 3.278,2.888 0.567,2.142 -0.614,4.446 -2.391,4.965 -1.879,0.554 -3.923,-0.565 -4.49,-2.753 -0.627,-2.422 0.809,-5.225 3.603,-5.1"
         style="fill:#054c89;fill-opacity:1;fill-rule:nonzero;stroke:none"
         id="path154"
         inkscape:connector-curvature="0" /></g><g
       id="g164"
       transform="matrix(5.4182377,0,0,5.4182377,116.17201,141.24621)"><path
         d="M 0,0 C 6.042,1.203 9.229,0.542 10.346,-0.234 11.856,-1.28 11.472,-3.869 7.72,-7.871 6.069,-9.622 5.281,-10.909 5.91,-11.759 0.476,-11.587 -5.075,-10.998 -10.425,-9.944 -5.128,-7.144 -2.344,-4.591 0,0 m 37.769,-8.183 c -3.194,-1.338 -6.949,-2.389 -10.725,-3.06 -11.413,-2.028 -24.036,-2.065 -35.904,0.075 2.351,-1.738 4.993,-3.274 7.823,-4.568 13.56,-1.245 28.747,-0.222 42.37,3.709 0.037,0.04 0.074,0.079 0.114,0.125 -1.16,0.439 -2.639,1.88 -3.678,3.719 M 1.695,6.38 C 4.51,6.295 7.927,5.806 10.257,5.015 12.265,4.338 15.2,3.11 16.085,0.78 c 0.665,-1.749 0.298,-4.317 -1.742,-7.614 -1.44,-2.334 -3.007,-4.052 -4.453,-4.967 5.9,0.042 11.567,0.583 16.563,1.558 3.623,0.706 7.459,1.756 10.649,3.149 -1.051,1.83 -1.809,3.653 -2.081,5.384 -0.533,3.37 1.824,8.901 1.824,8.901 -7.607,0.492 -11.685,-1.265 -11.309,-12.04 0.061,-1.777 -0.193,-3.361 -2.213,-3.373 -1.737,-0.02 -1.979,1.785 -2.078,3.496 -0.226,3.842 -2.049,14.209 14.172,17.83 1.171,0.259 2.46,0.66 2.391,2.689 -0.107,2.983 -3.281,6.444 -5.65,6.728 -2.137,-2.455 -4.529,-4.01 -6.909,-4.952 -0.458,-1.307 -1.43,-3.245 -2.756,-5.141 -3.48,-4.969 -6.106,-4.537 -6.937,-4.264 0,0.007 0,0.015 0.004,0.019 C 13.313,8.934 9.8,13.928 9.016,15.47 2.958,12.905 1.695,6.38 1.695,6.38 M 40.136,2.685 c -1.179,-2.799 -1.117,-4.546 0.95,-7.569 5.852,4.288 1.808,6.706 -0.95,7.569 m -23.782,9.427 c 1.603,-0.707 3.686,1.954 4.593,4.351 -3.253,-0.428 -6.142,0.057 -7.879,0.596 0.629,-1.663 2.048,-4.393 3.286,-4.947 M 42.159,6.594 C 41.798,6.019 41.03,4.564 40.715,3.957 c 3.172,-0.542 6.545,-2.61 5.708,-5.237 -0.55,-1.735 -2.176,-3.355 -4.478,-4.784 0.663,-0.803 1.469,-1.654 2.037,-2.48 2.691,4.071 4.723,8.924 6.033,14.009 -2.366,0.56 -5.043,0.95 -7.856,1.129 M 1.061,-16.642 c 10.178,-4.109 22.226,-5.196 31.192,-1.897 2.831,1.039 5.387,2.765 7.641,4.983 -13.541,-3.5 -27.155,-4.029 -38.833,-3.086 m -14.634,9.705 c -3.787,4.173 -5.95,9.132 -5.491,14.59 1.898,22.544 46.237,42.117 61.147,33.953 9.148,-5.018 11.486,-20.365 8.34,-34.442 -2.613,0.61 -5.219,0.954 -7.18,1.135 0.53,0.848 1.072,1.745 1.546,2.675 2.549,5.026 -0.161,10.129 -5.049,15.271 -1.457,1.518 -6.642,6.029 -9.2,1.391 0,0 -1.942,-4.011 -5.054,-6.03 -3.932,-2.553 -10.199,-3.11 -14.089,0.55 C 10.513,22.987 8.792,24.249 3.809,21.569 -1.174,18.896 -4.461,12.97 -5.653,4.88 -6.274,0.72 -7.531,-2.408 -11.25,-5.437 c -0.709,-0.574 -1.496,-1.071 -2.323,-1.5 m 37.744,33.666 c 1.933,-1.196 3.538,-0.441 4.081,-0.008 2.02,1.655 1.283,4.542 -0.658,5.873 -1.759,1.202 -3.888,0.723 -4.841,-0.847 -1.027,-1.696 -0.214,-4.015 1.418,-5.018 m -11.96,-3.157 c 1.295,-2.292 4.268,-2.041 5.892,-0.338 1.471,1.546 1.354,3.742 -0.036,4.955 -1.504,1.305 -3.919,0.882 -5.178,-0.568 -1.497,-1.723 -1.025,-3.441 -0.678,-4.049"
         style="fill:#054c89;fill-opacity:1;fill-rule:nonzero;stroke:none"
         id="path166"
         inkscape:connector-curvature="0" /></g><g
       id="g180"
       transform="translate(918.57426,338.56294)"><path
         d="m 0,0 c -2.921,1.079 -5.858,2.519 -8.695,4.242 13.769,0.71 28.591,7.275 39.868,9.105 -0.341,-0.65 -0.7,-1.291 -1.065,-1.908 C 20.736,8.438 6.835,1.546 0,0 m -16.043,9.56 c 1.458,-1.25 2.991,-2.423 4.569,-3.516 6.115,-0.488 12.573,0.05 18.313,1.504 7.979,2.018 16.365,5.958 25.225,7.568 0.961,1.996 1.818,4.09 2.57,6.253 C 28.083,20.738 21.691,19.015 14.143,15.439 12.554,14.688 10.951,14 9.334,13.374 9.166,12.506 8.86,11.506 8.29,10.771 5.536,7.271 0.178,8.697 -2.914,10.06 -7.27,9.363 -11.667,9.183 -16.043,9.56 m 18.307,6.052 c 2.17,0.172 3.1,3.222 5.288,4.214 3.08,1.392 6.132,-2.606 6.506,-3.118 6.5,2.665 12.305,5.122 18.663,6.176 -4.527,0.357 -14.21,2.168 -20.788,5.075 C 11.824,27.871 11.709,27.782 11.584,27.701 3.807,22.61 -3.981,24.691 -7.023,25.795 -5.654,20.376 -1.368,15.319 2.264,15.612 m 29.217,48.991 c -2.206,2.088 -5.57,3.06 -9.602,3.136 C 12.418,53.488 8.483,38.304 8.11,35.424 7.974,34.396 7.636,32.729 9.157,31.509 c 0.356,0.255 0.713,0.526 1.067,0.812 1.693,1.368 3.652,-1.07 2.653,-3.196 2.359,-1.173 5.525,-2.343 9.377,-3.272 4.433,-1.069 9.045,-1.596 13.197,-1.948 4.633,15.379 3.925,33.214 -3.97,40.698 M 1.945,-0.658 c 5.78,-1.814 11.346,-2.087 15.667,-0.168 4.471,1.987 8.324,5.77 11.456,10.577 C 18.811,6.614 11.091,2.408 1.945,-0.658 M -28.929,36.396 C -25.481,51.094 2.202,66.774 19.783,67.698 18.561,65.702 17.28,63.411 15.955,60.896 8.249,46.282 5.915,35.474 5.877,33.386 5.848,32.147 6.501,31.289 7.534,30.478 1.305,26.924 -4.798,28.11 -8.102,29.874 c -1.784,0.958 -3.222,1.22 -4.67,0.515 -2.783,-1.368 -2.121,-6.279 -0.195,-10.312 1.839,-3.853 4.573,-6.677 7.304,-8.5 -4.401,-0.357 -8.805,-0.206 -13.063,0.436 -7.386,7.232 -12.121,16.216 -10.203,24.383 m 13.44,-2.035 c 0.88,-2.253 2.846,-2.537 3.593,-2.483 2.785,0.203 3.889,3.145 2.981,5.483 -0.818,2.111 -2.961,2.938 -4.777,2.212 -1.454,-0.588 -2.762,-2.743 -1.797,-5.212"
         style="fill:#054c89;fill-opacity:1;fill-rule:nonzero;stroke:none"
         id="path182"
         inkscape:connector-curvature="0" /></g><g
       id="g184"
       transform="translate(954.18406,488.89504)"><path
         d="m 0,0 c -12.167,13.504 -56.207,3.718 -64.492,-15.689 -6.41,-14.995 16.931,-44.451 34.843,-45.035 -0.354,0.723 -0.542,1.766 -0.675,2.893 -1.37,11.637 2.134,23.76 5.324,31.301 -4.501,-8.18 -6.401,-17.965 -6.401,-17.965 0,0 -0.271,-1.661 -0.947,-0.581 -0.418,0.658 -0.168,1.531 -0.168,1.531 0.112,1.565 7.722,26.121 23.745,38.822 1.634,1.297 4.065,1.181 4.873,-0.535 0.375,-0.788 0.477,-2.83 -1.438,-4.228 -9.555,-6.962 -22.949,-25.224 -21.517,-49.753 0.016,-0.283 -0.012,-0.841 -0.166,-1.354 0.586,0.081 1.16,0.194 1.723,0.354 C -9.063,-55.844 11.445,-12.702 0,0 m -48.31,-23.634 c -0.731,0.21 -2.399,1.17 -2.572,3.621 -0.145,2.062 1.381,4.216 3.521,4.351 1.986,0.126 3.748,-1.463 3.802,-3.766 0.055,-2.538 -2.018,-4.975 -4.751,-4.206 m 29.786,14.666 c -0.81,-1.898 -8.796,-2.13 -18.77,-12.528 1.954,-1.351 6.582,-3.581 10.575,-4.057 0.341,0.532 0.685,1.081 1.037,1.631 0,0 0.627,1.008 0.724,0.504 0.089,-0.462 -0.34,-1.066 -0.34,-1.066 l -0.002,-0.012 c -7.674,-12.441 -9.488,-20.619 -9.488,-20.619 0,0 -0.27,-1.639 -0.883,-0.869 -0.25,0.311 -0.5,1.116 -0.334,1.919 0.166,1.234 1.825,5.326 4.849,10.919 -2.89,0.348 -8.587,3.324 -10.848,5.571 0,0 -3.618,-5.706 2.982,-8.607 1.033,-0.458 1.8,-0.493 2.416,-1.358 0.492,-0.691 0.46,-2.083 -0.5,-2.656 -1.089,-0.65 -2.747,-0.12 -4.165,0.634 -3.958,2.177 -6.238,6.076 -5.359,10.487 0.815,4.087 4.16,7.806 7.434,10.725 10.371,9.233 22.283,13.134 20.672,9.382"
         style="fill:#054c89;fill-opacity:1;fill-rule:nonzero;stroke:none"
         id="path186"
         inkscape:connector-curvature="0" /></g><g
       id="g188"
       transform="translate(995.83786,370.78274)"><path
         d="m 0,0 c 0,0 0.32,-0.076 0.315,0.144 -0.002,0.134 -0.252,0.241 -0.76,0.506 -3.189,1.704 -6.523,3.788 -8.314,5.288 -6.027,5.052 -7.607,9.556 -8.039,11.793 -0.492,2.581 0.669,3.342 1.262,3.732 1.269,0.83 2.956,0.56 3.876,-1.286 C -10.342,17.498 -7.907,8.752 2.085,4.646 8.026,2.208 15.007,2.649 21.877,3.149 c 2.139,0.144 3.855,-0.533 5.384,-2.271 4.995,-5.674 12.99,-6.987 20.177,-4.077 2.397,0.97 3.674,0.332 4.143,-0.587 0.619,-1.181 -0.104,-2.62 -2.318,-3.728 -3.283,-1.631 -15.05,-3.482 -24.504,4.446 0,0 -14.447,-4.052 -34.107,1.699 -2.411,0.701 -4.399,1.45 -6.033,2.181 1.345,-3.246 3.001,-6.502 4.884,-9.641 1.926,-0.553 4.15,-1.631 6.115,-3.586 4.34,-4.323 7.614,-4.062 9.154,-3.827 2.825,0.429 3.823,1.972 6.476,1.695 2.646,-0.283 4.086,-2.876 10.227,-1.241 2.257,0.607 4.329,1.695 6.506,2.525 2.157,0.831 4.641,1.301 6.936,0.801 1.846,-0.392 3.271,-1.517 4.767,-2.602 1.753,-1.274 3.677,-1.958 5.877,-1.678 1.115,0.138 2.005,0.635 2.718,1.135 5.786,8.306 8.159,18.211 3.898,26.033 C 43.689,26.003 -6.886,42.868 -16.98,27.163 -19.856,22.68 -19.905,15.909 -17.987,8.525 -15.769,6.961 -9.44,1.785 0,0 m 42.069,3.935 c 0.429,2.395 2.83,3.963 5.628,3.36 3.096,-0.661 5.373,-3.668 3.628,-6.697 -0.463,-0.805 -2.032,-2.539 -5.047,-2.017 -2.608,0.454 -4.671,2.773 -4.209,5.354 M 29.46,6.387 c 0.582,0.504 2.465,1.45 4.486,0.17 C 36.249,5.096 36.521,2.534 35.678,1.158 34.635,-0.564 32.357,-1.199 30.379,0.031 28.195,1.393 27.29,4.503 29.46,6.387 m 14.088,-3.93 c -0.3,1.627 0.852,3.4 2.784,3.67 2.358,0.33 4.43,-1.397 4.039,-3.731 -0.105,-0.627 -0.79,-2.246 -2.854,-2.581 -1.969,-0.327 -3.654,0.874 -3.969,2.642 m 2.707,-20.73 c -7.258,-8.832 -18.352,-15.163 -28.791,-13.847 -9.657,1.22 -19.54,10.232 -26.627,21.157 1.445,-0.458 2.982,-1.331 4.744,-3.016 1.654,-1.571 3.629,-2.967 5.9,-3.494 1.01,-0.226 2.063,-0.251 3.085,-0.066 1.277,0.227 2.382,0.83 3.599,1.234 3.068,1.028 4.416,-0.607 6.531,-1.207 2.257,-0.645 4.642,-0.342 6.837,0.401 2.237,0.767 4.305,1.949 6.549,2.688 2.207,0.728 4.572,0.86 6.835,0.345 3.154,-0.716 4.271,-2.202 5.595,-3.022 2.053,-1.269 3.876,-1.887 5.743,-1.173"
         style="fill:#054c89;fill-opacity:1;fill-rule:nonzero;stroke:none"
         id="path190"
         inkscape:connector-curvature="0" /></g><g
       id="g192"
       transform="translate(1098.251,401.66164)"><path
         d="M 0,0 C 0.775,1.377 2.686,1.997 4.251,1.043 6.16,-0.116 6.61,-2.627 4.911,-4.117 4.459,-4.515 2.977,-5.302 1.275,-4.318 -0.348,-3.391 -0.835,-1.492 0,0 m -0.461,-65.205 c -4.393,-1.093 -8.599,-1.166 -12.22,0.05 -18.144,6.108 -14.999,55.275 -2.347,66.694 6.503,5.875 17.964,4.576 28.404,-0.282 -0.077,-0.218 -0.161,-0.465 -0.255,-0.738 -0.478,-1.373 -0.798,-2.165 -1.589,-3.746 -5.979,-11.985 -20.536,-20.5 -24.741,-19.772 -2.68,0.469 -1.809,4.61 -0.645,7.16 1.177,2.568 2.425,4.849 -0.031,5.484 -2.332,0.603 -4.136,-1.877 -4.896,-5.119 -1.372,-5.902 0.532,-10.255 3.49,-11.336 2.691,-0.973 6.86,0.054 11.3,2.496 3.422,-4.392 4.071,-10.233 3.518,-14.99 -0.525,-4.092 -1.847,-7.717 -2.801,-9.156 -1.321,-2.004 -3.195,-4.118 -9.948,-7.379 -2.812,-1.357 -0.762,-5.295 1.886,-4.199 8.043,3.342 11.576,8.34 13.15,11.932 1.13,2.568 1.635,7.188 1.874,8.922 0.12,0.876 0.157,1.523 0.513,1.642 0.26,0.089 0.585,0.033 0.61,-0.793 0.444,-13.421 -3.951,-20.957 -5.313,-24.046 -0.574,-1.295 -0.419,-2.236 0.041,-2.824 M -0.365,-4.49 C 1.437,-6.721 3.69,-6.33 4.517,-6.015 7.61,-4.815 7.787,-1.237 5.951,1.1 4.286,3.207 1.598,3.483 -0.168,1.969 -2.072,0.338 -1.935,-2.561 -0.365,-4.49 m -4.644,-11.445 c 2.27,-0.804 3.763,0.489 4.213,1.085 1.663,2.235 0.159,4.991 -2.186,5.825 -2.124,0.754 -4.15,-0.316 -4.784,-2.161 -0.505,-1.478 0.269,-3.865 2.757,-4.749 M 15.668,0.122 c 0.05,-2.54 -1.798,-7.005 -5.932,-12.454 -1.364,-1.791 -2.87,-3.472 -4.453,-5.018 0.869,-1.889 6.193,-14.313 3.57,-30.475 -1.42,-8.73 -2.935,-13.347 -4.293,-15.742 15.392,6.205 31.249,23.057 31.682,38.815 0.245,9.055 -9.28,18.965 -20.574,24.874"
         style="fill:#054c89;fill-opacity:1;fill-rule:nonzero;stroke:none"
         id="path194"
         inkscape:connector-curvature="0" /></g><g
       id="g212"
       transform="translate(829.51226,450.67824)"><path
         d="M 0,0 C 1.525,3.288 1.487,8.741 1.487,8.969 3.237,7.437 5.037,5.334 5.606,3.158 5.92,1.974 6.183,-0.143 4.297,-0.068 2.831,-0.011 1.407,0.046 0,0 m 19.026,-19.004 c -10.769,-4.501 -26.319,-0.737 -37.407,6.558 6.979,3.369 13.107,7.11 15.612,8.927 3.697,0.475 7.856,-0.398 9.844,-0.837 1.503,-0.323 2.633,-0.223 3.359,0.337 1.264,0.975 2.713,3.15 2.161,6.627 -0.622,3.967 -3.502,8.145 -6.376,11.375 1.962,1.484 7.85,3.142 11.336,3.323 0.343,-0.779 0.556,-1.783 0.595,-2.142 -4.002,-0.143 -6.917,-2.73 -6.984,-3.524 -0.02,-1.015 2.059,-3.509 5.542,-4.175 0.654,-1.227 1.726,-2.168 3.049,-2.484 3.709,-0.892 4.6,2.322 4.6,2.322 0,0 0.274,0.789 0.198,2.635 0.64,0.549 1.17,1.315 1.154,1.772 -0.05,0.578 -0.615,1.103 -1.612,1.83 C 19.769,30.727 13.535,38.016 7.191,35.133 4.71,33.998 1.914,32.036 0.381,29.706 c -0.713,-1.085 -0.964,-2.44 0.284,-2.614 1.482,-0.205 3.044,1.858 4.26,2.703 5.139,3.568 7.376,1.05 9.466,-3.838 C 8.482,24.704 -3.01,21.685 -4.653,17.704 -4.658,17.697 -4.662,17.689 -4.662,17.687 -5.017,17.04 -5.034,16.021 -4.975,15.421 -4.549,10.753 -4.393,5.646 -5.384,1.978 c -0.669,-2.476 -2.223,-3.526 -4.059,-4.642 -2.714,-1.649 -7.341,-3.88 -12.588,-5.906 -0.291,-0.117 -0.624,-0.258 -0.948,-0.428 -6.146,5.284 -9.889,11.732 -8.797,18.116 3.314,19.277 47.776,42.169 64.378,30.741 13.265,-9.132 1.83,-52.436 -13.576,-58.863 M 29.3,25.677 c -1.814,1.437 -4.132,1.057 -5.353,-0.525 -0.981,-1.263 -1.014,-3.837 1.11,-5.512 1.938,-1.532 3.818,-0.766 4.444,-0.328 2.35,1.616 1.803,4.776 -0.201,6.365 M 18.146,12.71 c 0.78,0.192 2.862,0.345 2.825,-2.71 -0.002,-0.581 0.1,-0.95 0.268,-1.162 2.375,0.641 3.337,2.053 3.418,2.726 0.055,0.915 -2.78,2.453 -5.942,2.465 -2.444,0.015 -5.723,-1.645 -5.732,-2.85 0.007,-0.635 1.33,-1.807 3.205,-2.364 l 0,0.007 c -0.78,2.693 1.056,3.661 1.958,3.888"
         style="fill:#054c89;fill-opacity:1;fill-rule:nonzero;stroke:none"
         id="path214"
         inkscape:connector-curvature="0" /></g><g
       id="g224"
       transform="translate(771.36476,400.66554)"><path
         d="m 0,0 c -13.281,12.402 -54.756,0.908 -61.341,-19.135 -3.071,-9.359 4.278,-23.91 14.449,-33.835 2.702,2.445 4.854,5.322 4.782,8.164 -0.078,3.307 -2.257,6.371 -4.572,9.567 -3.206,4.4 -2.32,11.714 0.413,17.913 0.733,1.653 2.785,5.979 6.233,5.913 1.208,-0.023 2.149,-0.089 3.313,0.058 -0.458,0.577 -1.041,1.616 -0.726,3.291 0.098,0.543 0.824,2.835 3.011,3.33 3.084,0.701 5.266,-2.418 3.87,-5.48 2.708,0.747 3.592,1.923 3.592,1.923 1.09,1.424 2.055,1.822 2.777,2 6.537,1.677 17.578,4.762 18.833,5.104 0.858,0.237 1.489,0.361 1.639,-0.27 0.127,-0.522 -0.422,-0.738 -1.651,-1.058 -3.311,-0.861 -14.994,-3.9 -17.843,-4.706 -0.632,-0.181 -1.415,-0.443 -2.048,-1.426 -1.195,-1.839 -4.357,-3.135 -8.918,-4.054 -0.794,-0.151 -1.516,-0.293 -2.122,-0.407 0.931,-1.707 3.713,-5.511 5.102,-6.679 0.868,-0.736 1.56,-0.624 1.962,-0.067 0.867,1.204 1.473,4.493 1.689,5.831 0.181,1.141 0.474,2.749 1.586,2.933 1.122,0.181 2.464,-0.568 2.407,-1.861 0,-1.211 -0.716,-3.587 -1.24,-5.149 -1.239,-3.656 -2.81,-6.379 -4.304,-6.749 -1.066,-0.257 -2.206,0.165 -3.02,0.711 -0.945,0.6 -2.459,1.704 -5.37,4.841 -0.937,-1.511 -2.421,-5.502 -2.705,-7.909 -0.225,-1.873 0.11,-3.734 2.088,-4.568 17.492,-7.376 18.357,-17.202 19.478,-23.965 0.482,-2.903 -5.159,-3.345 -5.795,-0.33 -2.222,10.57 -4.871,15.215 -13.179,17.191 0.566,-1.171 1.027,-2.837 0.8,-4.97 -0.465,-4.4 -4.223,-9.699 -6.667,-12.19 7.318,-6.019 15.569,-9.372 22.308,-6.9 C -5.378,-57.158 12.503,-11.671 0,0 m -15.36,-7.782 c -2.524,-0.737 -5.049,-1.478 -7.568,-2.22 -0.379,-0.11 -0.682,0.028 -0.817,0.416 -0.195,0.565 0.295,0.734 0.742,0.861 1.049,0.323 5.793,1.639 7.327,2.007 0.382,0.089 0.654,-0.099 0.706,-0.503 0.048,-0.3 -0.125,-0.478 -0.39,-0.561"
         style="fill:#054c89;fill-opacity:1;fill-rule:nonzero;stroke:none"
         id="path226"
         inkscape:connector-curvature="0" /></g><g
       id="g268"
       transform="translate(1024.1583,488.85694)"><path
         d="M 0,0 C -0.819,2.472 0.203,5.252 3.335,5.121 5.233,5.04 7.18,3.32 8.021,1 9.438,-2.904 7.105,-4.161 5.343,-3.973 3.115,-3.746 0.72,-2.17 0,0 m 11.159,-1.851 c 0.032,-1.306 -0.055,-2.725 0.613,-4.049 0.703,-1.395 2.001,-3.158 3.493,-4.395 2.356,1.212 3.803,-3.41 0.782,-5.168 -5.021,-2.933 -12.339,-4.218 -20.744,-2.153 0,0 -4.181,-5.668 -4.181,-11.243 0.162,-1.359 0.69,-2.135 2.502,-2.886 9.498,-3.91 14.395,-8.759 17.135,-13.478 10.633,15.686 16.536,38.112 8.983,46.495 -2.945,3.264 -7.65,5.112 -13.204,5.79 3.678,-2.182 4.562,-6.64 4.621,-8.913 M 2.484,7.341 c 3.847,-0.131 7.592,-3.517 7.775,-9.245 0.039,-1.305 -0.171,-2.808 0.767,-4.38 1.194,-2.011 2.285,-3.185 3.412,-4.498 -0.385,-0.224 -0.637,-0.359 -1.016,-0.56 -2.6,3.338 -3.621,4.693 -7.508,5.447 -3.695,0.714 -7.835,2.856 -8.354,7.348 -0.479,4.199 2.399,5.979 4.924,5.888 M 0.171,-1.865 c 1.699,-2.143 5.264,-3.558 7.218,-2.574 2.87,1.435 1.997,5.666 -0.486,8.5 C 5.151,6.079 1.897,7.002 -0.027,5.195 -1.949,3.402 -1.532,0.28 0.171,-1.865 m -35.109,-9.726 c -0.854,-0.007 -1.665,-0.684 -1.526,-1.72 0.108,-0.745 0.651,-1.326 1.524,-1.318 0.891,0.02 1.706,0.612 1.533,1.773 -0.117,0.793 -0.764,1.273 -1.531,1.265 m 41.974,-38.6 c -4.835,-5.822 -10.32,-10.056 -15.823,-11.202 -20.05,-4.176 -40.904,31.899 -34.889,46.823 4.81,11.927 25.47,21.022 42.543,21.863 -1.788,-1.149 -3.011,-3.299 -2.433,-6.428 1,-5.433 6.467,-6.915 9.001,-7.487 3.833,-0.857 5.284,-2.027 7.08,-5.177 -9.746,-4.732 -17.809,-1.522 -20.726,-0.703 -0.467,0.146 -0.987,0.195 -1.454,0.107 -2.51,-0.461 -4.352,-3.092 -6.094,-7.651 -1.137,-2.993 -1.611,-5.211 -1.754,-7.164 -0.143,-2.024 -0.389,-4.734 2.179,-7.607 2.177,-2.434 6.557,-6.738 5.455,-10.339 -0.966,-3.12 -5.233,-5.047 -9.833,-6.508 -1.836,-0.585 -4.6,-1.077 -4,-2.957 0.766,-2.402 4.1,-1.746 5.965,-1.153 3.711,1.17 10.4,5 12.822,9.217 0.97,1.685 1.181,4.592 0.099,7.463 5.948,-1.678 9.561,-5.068 11.862,-11.097 m -15.24,39.257 c 2.473,-1.441 5.114,0.423 5.691,2.922 0.525,2.255 -0.809,4.239 -2.773,4.632 -2.168,0.43 -4.093,-1.34 -4.529,-3.381 -0.526,-2.442 0.95,-3.791 1.611,-4.173 m -24.248,-1.717 c -0.211,1.138 -1.268,1.961 -2.606,1.961 -1.124,0 -2.136,-0.598 -2.525,-1.486 -0.688,-1.575 0.302,-2.815 1.076,-3.245 0.983,-0.538 2.315,-0.465 3.273,0.365 0.686,0.593 0.921,1.624 0.782,2.405"
         style="fill:#054c89;fill-opacity:1;fill-rule:nonzero;stroke:none"
         id="path270"
         inkscape:connector-curvature="0" /></g><g
       id="g304"
       transform="translate(1078.0225,471.83254)"><path
         d="m 0,0 c -0.081,-0.603 -0.526,-1.088 -1.227,-1.077 -0.723,0.011 -1.379,0.5 -1.242,1.454 0.097,0.653 0.621,1.038 1.239,1.035 C -0.544,1.404 0.11,0.854 0,0 M 13.507,7.618 C 11.775,6.707 12.634,2.53 14.374,1.699 15.829,1.004 19.31,2.983 18.865,4.626 18.464,6.118 15.574,8.711 13.507,7.618 m 29.706,-41.719 c -5.693,-4.877 -12.02,-8.083 -17.616,-8.093 -18.658,-0.029 -40.371,37.076 -33.144,55.034 6.994,17.37 55.743,6.706 65.268,-7.24 6.533,-9.568 -0.367,-25.385 -10.784,-36.182 -2.373,1.627 -4.876,3.519 -5.426,6.133 -0.731,3.457 3.693,7.422 5.213,11.249 0.607,1.621 0.657,2.845 0.415,4.685 -0.464,3.554 -2.885,7.353 -8.501,11.691 -0.009,0.005 -0.017,0.009 -0.021,0.009 3.303,3.841 6.313,5.544 9.54,0.468 1.213,-1.904 1.681,-3.876 2.82,-3.865 1.17,0.015 1.328,1.046 1.057,2.251 C 51.431,4.657 49.524,7.437 47.69,9.247 42.755,14.105 36.506,7.91 32.932,4.002 29.127,-0.154 26.52,-4.361 24.053,-4.272 c -1.665,0.058 -3.154,3.06 -3.948,4.621 -0.41,0.794 -0.907,1.35 -1.488,1.638 0.844,0.751 1.488,1.724 1.222,2.674 -0.548,2.022 -4.397,5.721 -7.251,4.146 -2.671,-1.471 -1.242,-7.015 1.122,-8.175 0.545,-0.263 1.3,-0.27 2.083,-0.093 -0.131,-2.738 3.725,-7.537 5.681,-8.568 1.783,-0.939 3.504,-1.077 5.774,0.05 1.798,0.9 4.092,3.064 5.926,5.145 5.014,-2.577 4.68,-5.996 4.326,-7.149 -0.415,-1.323 -1.203,-2.08 -3.001,-2.781 -15.108,-5.94 -16.766,-16.154 -17.563,-21.264 -0.357,-2.253 4.677,-3.691 5.267,-0.884 2.092,9.944 6.132,14.627 14.63,16.516 -0.679,-2.454 -1.01,-5.541 -0.48,-7.665 0.574,-2.284 4.062,-5.791 6.86,-8.04 M 25.56,7.456 c 0.193,-2.448 2.417,-4.587 4.966,-3.583 0.687,0.27 2.302,1.359 2.125,3.725 -0.184,2.389 -2.092,3.939 -3.805,3.841 C 26.931,11.332 25.391,9.672 25.56,7.456 M 1.013,0.881 c -0.316,0.78 -1.152,1.3 -2.069,1.3 -1.103,0 -1.968,-0.719 -2.139,-1.719 -0.119,-0.685 0.074,-1.593 0.638,-2.108 0.785,-0.726 1.872,-0.796 2.687,-0.322 0.641,0.372 1.452,1.465 0.883,2.849"
         style="fill:#054c89;fill-opacity:1;fill-rule:nonzero;stroke:none"
         id="path306"
         inkscape:connector-curvature="0" /></g><g
       id="g312"
       transform="translate(1195.6124,564.62884)"><path
         d="m 0,0 c -0.353,0.236 -0.89,0.362 -1.455,0.378 0.558,0.987 0.77,1.176 1.285,1.21 C 0.869,1.649 2.244,1.666 3.363,1.697 4.486,1.73 5.384,1.873 5.32,1.592 5.278,1.347 5.177,1.004 5.104,0.893 4.957,0.685 3.594,0.912 1.277,0.865 1.05,0.854 0.773,0.836 0.685,0.642 0.617,0.504 0.529,0.042 0,0 m 5.324,-12.528 c -3.937,-0.204 -6.837,-1.496 -7.177,-2.318 -0.273,-0.67 -0.083,-1.203 0.544,-1.707 1.825,-1.45 3.326,-2.486 4.863,-3.397 0.599,0.117 3.383,0.836 4.826,1.812 0,0 -0.41,0.103 -0.808,0.45 -1.015,0.88 -1.911,2.791 -2.248,5.16 m -42.455,7.772 c 0.138,11.451 3.424,21.723 10.719,24.896 C -15.662,24.805 2.132,17.906 15.612,7.242 14.297,6.865 12.675,6.479 10.656,6.168 12.332,7.161 12.254,8.221 11.431,8.649 10.899,8.93 10.195,8.6 9.063,8.384 7.771,8.133 3.264,7.387 -1.29,8.114 c -3.451,0.547 -4.794,1.865 -7.327,4.972 -1.654,2.03 -3.129,3.742 -4.535,4.465 -3.358,1.735 -7.025,-0.107 -8.876,-2.595 -0.998,-1.347 0.841,-3.323 2.579,-1.727 1.209,1.112 2.889,2.181 4.532,1.426 1.299,-0.589 2.493,-2.502 4.052,-4.406 -0.736,-0.415 -1.815,-0.886 -3.163,-1.088 -5.521,1.985 -10.411,2.887 -15.826,2.307 -0.908,-0.095 -1.492,-0.293 -1.589,-0.854 -0.104,-0.607 0.502,-0.88 1.131,-0.907 0.96,-0.043 3.364,0.846 7.44,0.346 3.415,-0.417 6.503,-1.319 9.587,-2.33 C -5.895,5.295 -0.052,4.531 4.609,4.515 9.603,4.5 14.056,5.173 17.081,6.046 22.119,1.858 26.47,-2.845 29.47,-7.616 c -2.125,-0.871 -4.321,-0.435 -6.98,-0.677 -2.579,-0.24 -4.797,-1.323 -6.576,-2.659 -1.115,1.27 -2.086,-0.373 -3.06,-1.963 -0.969,-1.582 -2.628,-3.765 -3.827,-2.293 -0.851,1.045 -0.579,3.333 -0.478,5.479 0.032,0.697 -0.193,1.947 -1.888,2.085 -2.449,0.209 -11.785,-1.758 -14.373,-5.203 -2.765,1.547 -6.091,3.05 -7.96,3.831 -0.008,2.677 -0.084,4.93 0.035,6.475 4.767,-0.373 8.8,-0.373 13.119,-0.092 1.465,0.089 3.398,0.377 2.891,2.126 0.402,0.046 0.573,0.265 0.642,0.461 C 1.086,0.163 1.228,0.236 1.55,0.244 3.134,0.27 5.203,0.113 5.437,0.17 5.913,0.279 6.086,1.521 6.124,1.961 6.154,2.258 5.947,2.515 5.613,2.515 4.703,2.515 0.825,2.386 -0.083,2.312 -0.423,2.277 -0.939,2.293 -1.223,2.011 -1.471,1.777 -1.955,0.989 -2.365,0.339 c -2.939,-0.234 -7.451,-0.652 -13.452,0.05 -2.125,0.253 -3.755,0.642 -5.148,0.096 -0.786,-0.312 -1.405,-0.897 -1.435,-2.592 -0.089,-1.338 0.018,-3.122 0.046,-4.522 -4.327,1.277 -8.345,1.896 -12.077,1.943 -0.902,0.019 -1.805,-0.012 -2.7,-0.07 M 8.164,-6.59 c 0.377,-1.49 1.594,-1.82 2.072,-1.842 1.77,-0.092 2.696,1.68 2.302,3.215 -0.35,1.396 -1.635,2.088 -2.838,1.768 C 8.735,-3.703 7.748,-4.959 8.164,-6.59 M -21.368,3.592 c 0.135,-1.529 1.287,-2.05 1.748,-2.149 1.735,-0.381 2.933,1.223 2.797,2.808 -0.123,1.434 -1.284,2.321 -2.524,2.195 -0.985,-0.093 -2.167,-1.176 -2.021,-2.854 m 17.02,7.249 c 0.5,-1.705 2.476,-1.992 3.802,-1.12 1.2,0.786 1.429,2.231 0.736,3.258 -0.558,0.827 -2.075,1.353 -3.474,0.423 -1.28,-0.843 -1.195,-2.107 -1.064,-2.561 m 8.119,-53.898 c -0.82,0.559 -4.496,1.327 -8.979,0.52 -1.484,-1.35 -3.219,-2.769 -5.23,-4.234 4.012,-0.361 8.303,-0.131 12.587,0.611 1.487,1.435 2.421,2.553 1.622,3.103 m 26.355,11.879 c -4.859,-6.564 -13.871,-11.547 -23.504,-14.029 0.631,0.975 1.032,1.948 0.815,2.832 -0.407,1.662 -3.405,3.761 -8.314,4.237 2.272,2.642 3.456,4.707 4.009,5.842 4.282,-0.297 7.568,-0.412 9.612,-0.27 2.08,0.156 2.987,1.301 2.79,2.156 -0.158,0.699 -1.042,0.886 -3.046,0.831 -1.738,-0.057 -5.157,-0.207 -10.097,-0.09 -5.011,0.122 -7.751,0.136 -9.674,-0.542 -2.741,-0.967 -3.866,-2.859 -4.576,-5.15 -0.457,-1.462 -0.55,-2.755 -0.256,-3.531 0.325,-0.877 1.182,-0.715 1.41,0.042 0.651,2.127 0.067,6.979 6.938,6.854 -3.01,-6.738 -6.938,-11.213 -10.583,-14.211 -3.66,0.739 -6.962,2.058 -9.624,4.019 -2.502,1.84 -4.701,4.624 -6.548,8.012 0.039,0.031 0.082,0.06 0.111,0.081 1.847,0.405 5.172,-0.237 6.408,-0.531 1.457,-0.351 2.398,-0.066 3.195,1.66 1.339,2.889 -1.385,7.348 -3.352,9.018 1.832,0.569 6.306,0.965 7.495,0.926 2.273,-3.948 4.351,-5.764 7.088,-5.137 1.902,0.438 6.986,3.637 4.867,5.537 -0.851,0.766 -1.685,0.451 -2.542,-0.446 -0.786,-0.823 -2.225,-2.295 -3.437,-2.011 -1.676,0.389 -2.721,3.231 -4.636,6.603 -1.777,3.133 -5.034,8.452 -9.024,6.111 -1.464,-0.862 -3.066,-2.251 -3.864,-3.792 -0.373,-0.719 -0.468,-1.5 0.346,-1.597 0.704,-0.096 1.754,1.24 2.455,1.939 2.738,2.766 4.583,0.749 6.257,-2.349 -4.552,-0.078 -11.417,-1.032 -12.687,-3.443 -0.73,-1.391 0.446,-4.913 -0.471,-8.859 -2.958,6.959 -4.665,15.59 -4.81,23.795 1.272,0.112 2.445,0.193 3.781,0.18 7.194,-0.092 16.265,-2.429 24.49,-6.998 4.843,-2.699 9.834,-6.257 12.998,-8.156 3.957,-2.369 7.743,-3.396 11.825,-3.508 2.183,-0.057 2.875,0.674 2.808,1.07 -0.109,0.622 -1.053,0.5 -3.313,0.486 -2.584,-0.017 -5.649,0.206 -10.265,2.699 0.706,0.195 2.588,0.891 4.567,2.565 1.592,0.021 3.377,0.979 5.046,2.886 1.177,1.338 1.806,2.784 1.631,3.558 2.144,1.649 4.637,2.299 7.478,2.39 1.628,0.054 2.636,0.036 3.595,0.097 0.88,0.059 1.335,0.293 1.299,-0.061 -0.103,-2.451 0.731,-5.779 1.085,-9.016 0.142,-1.277 0.681,-4.217 -1.873,-4.469 -2.007,-0.194 -1.51,2.314 -2.741,3.053 -0.315,0.192 -0.876,0.076 -0.841,-0.6 0.016,-0.357 0.419,-0.85 0.419,-0.85 0.937,-1.173 0.746,-1.723 1.55,-2.368 1.106,-0.898 2.877,-0.704 3.747,0.433 1.311,1.708 0.871,3.915 0.687,5.769 -0.275,2.753 -0.926,5.983 -0.724,8.81 2.364,-4.035 3.741,-8.103 3.741,-11.929 0,-3.396 -1.092,-6.577 -2.996,-9.486 -0.284,0.007 -0.642,-0.011 -1.09,-0.035 -0.811,-0.05 -3.608,-0.216 -12.317,-0.203 -0.07,1.264 -1.57,1.892 -2.535,1.956 -0.2,0.009 -0.817,0 -0.7,-0.349 0.072,-0.219 0.448,-0.209 0.621,-0.223 0.869,-0.085 1.716,-0.507 1.713,-1.673 -0.002,-1.338 -0.89,-1.896 -1.684,-2.058 -0.362,-0.074 -0.754,-0.01 -0.76,-0.265 -0.007,-0.399 0.596,-0.31 0.795,-0.284 0.787,0.11 2.192,0.662 2.55,1.992 7.146,-0.146 10.817,-0.117 12.662,0.08 m -41.589,15.523 c -0.992,0.106 -2.365,-0.714 -2.565,-2.384 -0.179,-1.525 0.837,-2.267 1.273,-2.461 1.621,-0.725 3.119,0.602 3.307,2.181 0.171,1.426 -0.781,2.531 -2.015,2.664 m 15.109,-10.72 c 0.043,1.434 -1.006,2.449 -2.247,2.469 -0.998,0.019 -2.293,-0.919 -2.338,-2.595 -0.045,-1.54 1.036,-2.193 1.482,-2.345 1.686,-0.574 3.057,0.884 3.103,2.471 m -29.356,-5.571 c 0.494,-0.043 0.658,0.114 0.841,0.469 0.473,0.949 -0.383,3.965 -3.524,5.575 0.159,-2.135 -0.295,-4.891 -0.68,-6.006 1.093,0.058 2.211,0.047 3.363,-0.038"
         style="fill:#054c89;fill-opacity:1;fill-rule:nonzero;stroke:none"
         id="path314"
         inkscape:connector-curvature="0" /></g><g
       id="g368"
       transform="translate(759.52586,451.48584)"><path
         d="m 0,0 c 4.387,-0.258 9.265,-0.656 13.717,-0.442 0.301,0.655 0.592,1.319 0.871,1.985 -4.429,0.1 -9.926,0.596 -17.95,1.384 C -2.171,1.834 -1.051,0.877 0,0"
         style="fill:#054c89;fill-opacity:1;fill-rule:nonzero;stroke:none"
         id="path370"
         inkscape:connector-curvature="0" /></g><g
       id="g372"
       transform="translate(766.85206,466.10594)"><path
         d="m 0,0 c -5.791,1.612 -16.854,-0.185 -20.804,-0.741 3.217,-4.065 6.052,-7.091 8.572,-9.514 0.497,-0.046 1.119,-0.096 1.318,-0.108 0.427,2.145 0.457,3.977 0.469,5.479 0.004,1.205 0.236,3.12 3.089,3.397 2.505,0.242 4.711,-0.742 6.979,-2.604 C 2.206,-6.21 3.697,-9.063 3.697,-9.063 6.192,-4.568 3.323,-0.919 0,0"
         style="fill:#054c89;fill-opacity:1;fill-rule:nonzero;stroke:none"
         id="path374"
         inkscape:connector-curvature="0" /></g><g
       id="g376"
       transform="translate(744.35446,465.15774)"><path
         d="m 0,0 c 0.045,-0.062 0.093,-0.127 0.141,-0.19 5.241,-6.793 8.3,-10.266 11.027,-13.192 0.637,-0.052 1.934,-0.147 2.354,-0.181 -2.497,2.15 -8.948,8.974 -12.6,13.677 C 0.729,0.085 0.217,0.025 0,0"
         style="fill:#054c89;fill-opacity:1;fill-rule:nonzero;stroke:none"
         id="path378"
         inkscape:connector-curvature="0" /></g><g
       id="g380"
       transform="translate(762.40386,459.01614)"><path
         d="M 0,0 C -0.706,0.354 -1.421,0.457 -2.125,0.347 -2.646,0.266 -2.955,-0.089 -3.048,-0.703 -3.144,-1.284 -3.335,-2.519 -3.514,-3.508 -1.235,-3.676 1.03,-3.819 3.296,-3.931 2.923,-2.63 1.784,-0.888 0,0"
         style="fill:#054c89;fill-opacity:1;fill-rule:nonzero;stroke:none"
         id="path382"
         inkscape:connector-curvature="0" /></g><g
       id="g384"
       transform="translate(717.38966,455.78854)"><path
         d="m 0,0 c 0.731,-0.71 1.405,-1.341 2.009,-1.909 12.77,0.884 27.828,-1.546 34.295,-1.962 -0.587,0.738 -1.375,1.767 -2.288,2.969 -1.929,0.203 -3.929,0.419 -6.015,0.646 C 19.437,0.694 9.334,0.73 0,0"
         style="fill:#054c89;fill-opacity:1;fill-rule:nonzero;stroke:none"
         id="path386"
         inkscape:connector-curvature="0" /></g><g
       id="g388"
       transform="translate(706.38236,465.01514)"><path
         d="m 0,0 c -0.014,-2.65 0.69,-5.433 1.959,-8.214 1.417,0.153 2.78,0.27 3.936,0.323 C 3.925,-5.415 1.482,-2.258 0,0"
         style="fill:#054c89;fill-opacity:1;fill-rule:nonzero;stroke:none"
         id="path390"
         inkscape:connector-curvature="0" /></g><g
       id="g392"
       transform="translate(713.63186,455.44774)"><path
         d="m 0,0 c -1.655,-0.139 -3.08,-0.284 -4.393,-0.446 0.434,-0.807 0.909,-1.604 1.426,-2.403 1.46,0.376 2.996,0.653 4.583,0.872 C 1.334,-1.639 0.753,-0.934 0,0"
         style="fill:#054c89;fill-opacity:1;fill-rule:nonzero;stroke:none"
         id="path394"
         inkscape:connector-curvature="0" /></g><g
       id="g396"
       transform="translate(745.78756,451.77004)"><path
         d="m 0,0 c -15.102,2.085 -27.137,1.836 -34.298,-0.391 0.327,-0.462 0.662,-0.926 1.017,-1.389 10.707,1.23 22.66,-0.787 33.299,-2.699 10.096,-1.827 17.85,-2.999 23.795,-2.965 0.976,1.535 1.889,3.149 2.724,4.804 C 19.773,-2.771 11.076,-1.529 0,0"
         style="fill:#054c89;fill-opacity:1;fill-rule:nonzero;stroke:none"
         id="path398"
         inkscape:connector-curvature="0" /></g><g
       id="g400"
       transform="translate(745.49956,446.49554)"><path
         d="m 0,0 c -10.629,2.26 -21.414,3.238 -31.969,2.207 9.736,-11.851 27.2,-21.572 38.064,-19.068 6.569,1.514 12.427,6.537 16.992,13.158 C 16.972,-3.33 8.728,-1.851 0,0"
         style="fill:#054c89;fill-opacity:1;fill-rule:nonzero;stroke:none"
         id="path402"
         inkscape:connector-curvature="0" /></g><g
       id="g404"
       transform="translate(722.87016,459.72414)"><path
         d="M 0,0 C -0.683,-0.139 -0.885,-0.577 -1.092,-2.216 0.277,-2.208 3.984,-2.27 4.487,-2.284 3.979,-1.62 1.816,0.349 0,0"
         style="fill:#054c89;fill-opacity:1;fill-rule:nonzero;stroke:none"
         id="path406"
         inkscape:connector-curvature="0" /></g><g
       id="g408"
       transform="translate(708.76316,469.27974)"><path
         d="m 0,0 c 4.417,0.623 8.954,0.872 13.413,0.618 6.064,-0.342 21.375,-1.972 17.852,-12.993 3.459,-0.201 6.933,-0.438 10.394,-0.712 -2.082,2.751 -4.576,6.092 -6.743,8.899 -1.379,-0.131 -2.048,1.247 -1.71,2.389 0.424,1.451 2.892,1.629 4.263,1.799 4.733,0.585 8.954,0.872 13.408,0.618 C 56.063,0.326 65.774,-0.815 68.532,-6.214 70.795,3.99 70.043,14.005 65.027,19.797 53.23,33.435 5.936,16.531 -1.205,1.142 -1.417,0.687 -1.598,0.219 -1.752,-0.251 -1.122,-0.135 -0.487,-0.074 0,0 m 51.859,7.575 c 1.465,1.426 3.569,1.326 4.754,0.019 C 57.695,6.391 57.704,4.125 56.129,2.646 54.547,1.142 52.843,1.627 52.25,1.953 50.038,3.164 50.237,5.998 51.859,7.575 m -37.454,0 c 1.466,1.426 3.568,1.326 4.752,0.019 C 20.243,6.391 20.25,4.125 18.677,2.646 17.09,1.142 15.39,1.627 14.795,1.953 12.582,3.164 12.786,5.998 14.405,7.575"
         style="fill:#054c89;fill-opacity:1;fill-rule:nonzero;stroke:none"
         id="path410"
         inkscape:connector-curvature="0" /></g><g
       id="g412"
       transform="translate(729.38726,466.10594)"><path
         d="m 0,0 c -5.1,1.347 -13.106,0.425 -20.628,-0.727 2.574,-3.329 4.98,-5.948 7.041,-8.024 0.992,0.046 1.974,0.085 2.948,0.111 0.113,1.113 0.213,2.538 0.188,3.756 -0.052,2.489 1.614,3.288 3.09,3.397 2.17,0.164 4.092,-0.517 6.022,-1.862 2.24,-1.553 4.244,-3.848 5.014,-5.33 C 5.693,-4.467 3.166,-0.83 0,0"
         style="fill:#054c89;fill-opacity:1;fill-rule:nonzero;stroke:none"
         id="path414"
         inkscape:connector-curvature="0" /></g><g
       id="g416"
       transform="translate(707.02976,465.16554)"><path
         d="m 0,0 c 2.002,-2.724 5.273,-6.991 9.354,-11.556 0.539,0.065 1.646,0.168 1.868,0.189 C 9.804,-10.016 5.443,-5.728 0.763,0.084 0.62,0.064 0.223,0.021 0,0"
         style="fill:#054c89;fill-opacity:1;fill-rule:nonzero;stroke:none"
         id="path418"
         inkscape:connector-curvature="0" /></g><g
       id="g420"
       transform="translate(845.95366,361.30414)"><path
         d="m 0,0 c -2.091,1.977 -5.289,1.947 -7.096,-0.007 -1.807,-1.962 -1.56,-5.118 0.547,-7.079 2.1,-1.954 5.276,-1.935 7.093,0.011 C 2.492,-4.996 2.029,-1.918 0,0"
         style="fill:#054c89;fill-opacity:1;fill-rule:nonzero;stroke:none"
         id="path422"
         inkscape:connector-curvature="0" /></g><g
       id="g424"
       transform="translate(858.73486,361.29734)"><path
         d="M 0,0 C -1.809,-1.962 -1.648,-5.461 0.997,-7.452 3.408,-5.026 5.394,-2.423 6.796,0.266 4.712,1.969 1.726,1.861 0,0"
         style="fill:#054c89;fill-opacity:1;fill-rule:nonzero;stroke:none"
         id="path426"
         inkscape:connector-curvature="0" /></g><g
       id="g428"
       transform="translate(841.75836,364.80414)"><path
         d="m 0,0 c -4.287,-0.272 -7.023,-3.654 -6.606,-7.557 0.422,-3.904 4.558,-6.373 8.406,-6.249 4.156,0.139 7.103,3.526 6.645,7.572 C 8.002,-2.326 3.928,0.234 0,0 m 6.9,-9.029 c -0.983,-2.908 -4.426,-4.397 -7.73,-3.291 -3.302,1.11 -5.197,4.348 -4.235,7.256 0.965,2.913 4.438,4.42 7.732,3.292 3.192,-1.097 5.283,-4.15 4.233,-7.257"
         style="fill:#054c89;fill-opacity:1;fill-rule:nonzero;stroke:none"
         id="path430"
         inkscape:connector-curvature="0" /></g><g
       id="g432"
       transform="translate(861.63336,364.80224)"><path
         d="m 0,0 c -4.285,-0.268 -7.021,-3.652 -6.603,-7.555 0.223,-2.076 1.492,-3.738 3.212,-4.834 0.311,0.288 0.618,0.577 0.919,0.873 -2.251,1.472 -3.383,4.072 -2.589,6.454 0.962,2.913 4.435,4.422 7.727,3.291 0.572,-0.192 1.105,-0.45 1.59,-0.762 0.223,0.458 0.425,0.927 0.614,1.391 C 3.421,-0.316 1.698,0.102 0,0"
         style="fill:#054c89;fill-opacity:1;fill-rule:nonzero;stroke:none"
         id="path434"
         inkscape:connector-curvature="0" /></g><g
       id="g436"
       transform="translate(854.05226,355.53564)"><path
         d="m 0,0 c -1.141,4.131 1.724,8.584 6.431,9.83 2.241,0.596 4.548,0.365 6.454,-0.515 0.853,2.572 1.307,5.995 0.343,9.4 -0.818,-0.181 -1.775,-0.256 -2.929,-0.214 -2.749,0.111 -5.393,1.342 -7.894,2.139 -5.215,1.656 -8.631,1.276 -11.52,-0.458 -0.783,-0.47 -1.53,-0.366 -1.753,0.142 -0.145,0.334 0.051,0.741 0.489,1.019 1.929,1.199 3.853,1.618 6.008,1.585 2.179,-0.032 4.422,-0.693 7.162,-1.543 4.138,-1.284 7.388,-1.965 9.996,-1.27 -0.307,0.84 -0.672,1.682 -1.101,2.515 -2.956,0.146 -5.933,1.344 -7.817,1.932 -5.273,1.642 -8.573,1.402 -11.494,-0.25 -1.05,-0.589 -1.702,-0.394 -1.983,-0.079 -0.234,0.27 -0.109,0.797 0.486,1.147 1.956,1.131 3.942,1.418 6.124,1.392 2.204,-0.035 4.479,-0.673 7.25,-1.496 2.574,-0.762 4.808,-1.292 6.757,-1.426 -10.103,17.18 -45.081,31.417 -60.553,20.338 -9.558,-6.843 -8.271,-27.899 -1.352,-43.154 7.921,8.768 12.42,18.782 16.104,30.513 -3.279,3.035 -5.868,4.727 -8.459,2.263 -2.55,-2.431 -2.825,-6.091 -4.479,-6.052 -1.01,0.029 -1.28,0.965 -1.069,2.168 0.495,2.772 2.034,5.337 3.82,7.195 4.85,5.029 11.063,0.168 15.04,-3.518 4.249,-3.94 8.446,-8.174 10.664,-7.65 1.468,0.342 2.833,2.627 3.546,4.189 0.869,1.902 2.12,2.964 3.783,2.106 3.017,-1.55 -1.731,-8.583 -4.491,-10.199 -3.224,-1.884 -6.15,-1.188 -11.014,2.763 -0.872,-2.012 -2.325,-5 -4.522,-8.506 2.277,-0.563 4.84,-1.454 6.467,-2.49 2.522,-1.621 4.315,-3.326 4.088,-5.724 -0.39,-4.124 -6.823,-11.899 -9.673,-13.772 -1.985,-1.311 -5.147,-0.114 -3.848,1.381 1.884,2.181 10.646,10.018 7.666,12.37 -0.843,0.662 -4.675,1.408 -9.68,1.373 -2.443,-3.14 -6.759,-8.31 -11.663,-12.869 3.421,-5.922 7.775,-10.419 12.658,-11.922 11.908,-3.664 28.395,2.113 39.071,11.267 C 1.62,-3.137 0.481,-1.753 0,0 m -28.337,34.571 c -0.726,0.172 -2.539,1.092 -2.66,3.452 -0.116,2.166 1.297,4.2 3.291,4.412 1.946,0.203 3.741,-1.301 3.878,-3.557 0.152,-2.497 -1.794,-4.966 -4.509,-4.307 M -9.306,-5.151 c -4.601,-1.147 -9.426,1.01 -10.571,5.151 -1.144,4.131 1.724,8.584 6.431,9.83 4.569,1.214 9.427,-1.008 10.569,-5.139 1.146,-4.145 -1.703,-8.668 -6.429,-9.842 m 7.579,12.619 c 1.714,1.997 3.764,3.207 5.659,4.218 0.103,0.055 0.062,0.134 -0.057,0.12 -4.267,-0.461 -9.393,-0.461 -13.592,0.166 -0.899,0.138 -0.547,1.504 0.234,1.358 5.578,-1.093 12.656,-1.128 19.469,0.48 0.685,0.162 1.094,-1.004 0.313,-1.135 C 8.337,12.349 6.581,12.036 5.103,11.391 2.84,10.411 1.13,8.891 -0.431,6.938 -0.835,6.437 -2.249,6.861 -1.727,7.468"
         style="fill:#054c89;fill-opacity:1;fill-rule:nonzero;stroke:none"
         id="path438"
         inkscape:connector-curvature="0" /></g></g></svg>